# xmcd
# 
# Track frame offsets:
#     150
#     16948
#     35287
#     54297
#     72895
#     92081
#     109883
#     128670
#     147557
#     166749
#     195500
# 
# Disc length: 2853
# 
# Revision: 4
# Processed by: cddbd v1.5.2PL0 Copyright (c) Steve Scherf et al.
# Submitted via: fre:ac v1.0.31
# 
DISCID=8b0b230b
DTITLE=Pieces Of A Dream - No Assembly Required
DYEAR=2004
DGENRE=Jazz
TTITLE0=It's Go Time
TTITLE1=Devotion
TTITLE2=Dyse It Up
TTITLE3=Yeah Baby
TTITLE4=Swerve
TTITLE5=Who U Wit?
TTITLE6=On Her Wings
TTITLE7=Summer
TTITLE8=Want A Piece Of This?
TTITLE9=No Assembly Required
TTITLE10=Lunar Lullaby
EXTD=YEAR: 2004
EXTT0=
EXTT1=
EXTT2=
EXTT3=
EXTT4=
EXTT5=
EXTT6=
EXTT7=
EXTT8=
EXTT9=
EXTT10=
PLAYORDER=
